<?xml version="1.0" encoding="UTF-8" standalone="no"?><svg xmlns="http://www.w3.org/2000/svg" xmlns:xlink="http://www.w3.org/1999/xlink" contentScriptType="application/ecmascript" contentStyleType="text/css" height="654px" preserveAspectRatio="none" style="width:1308px;height:654px;" version="1.1" viewBox="0 0 1308 654" width="1308px" zoomAndPan="magnify"><defs><filter height="300%" id="f3ohwo3p0ccv5" width="300%" x="-1" y="-1"><feGaussianBlur result="blurOut" stdDeviation="2.0"/><feColorMatrix in="blurOut" result="blurOut2" type="matrix" values="0 0 0 0 0 0 0 0 0 0 0 0 0 0 0 0 0 0 .4 0"/><feOffset dx="4.0" dy="4.0" in="blurOut2" result="blurOut3"/><feBlend in="SourceGraphic" in2="blurOut3" mode="normal"/></filter></defs><g><!--cluster informatic.weather--><polygon fill="#FFFFFF" filter="url(#f3ohwo3p0ccv5)" points="14,16,155,16,162,38.4883,1286,38.4883,1286,642,14,642,14,16" style="stroke: #000000; stroke-width: 2.0;"/><line style="stroke: #000000; stroke-width: 2.0;" x1="14" x2="162" y1="38.4883" y2="38.4883"/><text fill="#000000" font-family="sans-serif" font-size="14" font-weight="bold" lengthAdjust="spacingAndGlyphs" textLength="135" x="18" y="31.5352">informatic.weather</text><!--class informatic.weather.Weather--><rect fill="#00FFFF" filter="url(#f3ohwo3p0ccv5)" height="131.9961" id="informatic.weather.Weather" style="stroke: #00008B; stroke-width: 1.5;" width="321" x="549.5" y="323"/><ellipse cx="682.25" cy="342.1328" fill="#ADD1B2" rx="11" ry="11" style="stroke: #00008B; stroke-width: 1.0;"/><path d="M685.2231,347.7759 Q684.6421,348.0747 684.0029,348.2241 Q683.3638,348.3735 682.6582,348.3735 Q680.1514,348.3735 678.8315,346.7217 Q677.5117,345.0698 677.5117,341.9487 Q677.5117,338.8193 678.8315,337.1675 Q680.1514,335.5156 682.6582,335.5156 Q683.3638,335.5156 684.0112,335.665 Q684.6587,335.8145 685.2231,336.1133 L685.2231,338.8359 Q684.5923,338.2549 683.9988,337.9851 Q683.4053,337.7153 682.7744,337.7153 Q681.4297,337.7153 680.7449,338.782 Q680.0601,339.8486 680.0601,341.9487 Q680.0601,344.0405 680.7449,345.1072 Q681.4297,346.1738 682.7744,346.1738 Q683.4053,346.1738 683.9988,345.9041 Q684.5923,345.6343 685.2231,345.0532 Z "/><text fill="#000000" font-family="sans-serif" font-size="12" font-style="italic" lengthAdjust="spacingAndGlyphs" textLength="48" x="702.25" y="339.6016">«object»</text><text fill="#000000" font-family="sans-serif" font-size="12" lengthAdjust="spacingAndGlyphs" textLength="47" x="702.75" y="353.7344">Weather</text><line style="stroke: #00008B; stroke-width: 1.5;" x1="550.5" x2="869.5" y1="361.2656" y2="361.2656"/><ellipse cx="560.5" cy="373.2432" fill="none" rx="3" ry="3" style="stroke: #038048; stroke-width: 1.0;"/><text fill="#000000" font-family="sans-serif" font-size="11" lengthAdjust="spacingAndGlyphs" textLength="206" x="569.5" y="375.9004">pyowm.webapi25.owm25.OWM25 owm</text><ellipse cx="560.5" cy="386.1982" fill="none" rx="3" ry="3" style="stroke: #038048; stroke-width: 1.0;"/><text fill="#000000" font-family="sans-serif" font-size="11" lengthAdjust="spacingAndGlyphs" textLength="268" x="569.5" y="388.8555">pyowm.webapi25.forecaster.Forecaster forecaster</text><ellipse cx="560.5" cy="399.1533" fill="none" rx="3" ry="3" style="stroke: #038048; stroke-width: 1.0;"/><text fill="#000000" font-family="sans-serif" font-size="11" lengthAdjust="spacingAndGlyphs" textLength="235" x="569.5" y="401.8105">pyowm.webapi25.forecast.Forecast forecast</text><ellipse cx="560.5" cy="412.1084" fill="none" rx="3" ry="3" style="stroke: #038048; stroke-width: 1.0;"/><text fill="#000000" font-family="sans-serif" font-size="11" lengthAdjust="spacingAndGlyphs" textLength="295" x="569.5" y="414.7656">pyowm.webapi25.observation.Observation observation</text><ellipse cx="560.5" cy="425.0635" fill="none" rx="3" ry="3" style="stroke: #038048; stroke-width: 1.0;"/><text fill="#000000" font-family="sans-serif" font-size="11" lengthAdjust="spacingAndGlyphs" textLength="53" x="569.5" y="427.7207">dict today</text><ellipse cx="560.5" cy="438.0186" fill="none" rx="3" ry="3" style="stroke: #038048; stroke-width: 1.0;"/><text fill="#000000" font-family="sans-serif" font-size="11" lengthAdjust="spacingAndGlyphs" textLength="81" x="569.5" y="440.6758">[dict] forecasts</text><line style="stroke: #00008B; stroke-width: 1.5;" x1="550.5" x2="869.5" y1="446.9961" y2="446.9961"/><!--class informatic.weather.NumericLabel--><rect fill="#98FB98" filter="url(#f3ohwo3p0ccv5)" height="67.2207" id="informatic.weather.NumericLabel" style="stroke: #008000; stroke-width: 1.5;" width="150" x="906" y="355.5"/><rect fill="#98FB98" height="38.2656" style="stroke: #008000; stroke-width: 1.5;" width="150" x="906" y="355.5"/><ellipse cx="921" cy="374.6328" fill="#ADD1B2" rx="11" ry="11" style="stroke: #008000; stroke-width: 1.0;"/><path d="M923.9731,380.2759 Q923.3921,380.5747 922.7529,380.7241 Q922.1138,380.8735 921.4082,380.8735 Q918.9014,380.8735 917.5815,379.2217 Q916.2617,377.5698 916.2617,374.4487 Q916.2617,371.3193 917.5815,369.6675 Q918.9014,368.0156 921.4082,368.0156 Q922.1138,368.0156 922.7612,368.165 Q923.4087,368.3145 923.9731,368.6133 L923.9731,371.3359 Q923.3423,370.7549 922.7488,370.4851 Q922.1553,370.2153 921.5244,370.2153 Q920.1797,370.2153 919.4949,371.282 Q918.8101,372.3486 918.8101,374.4487 Q918.8101,376.5405 919.4949,377.6072 Q920.1797,378.6738 921.5244,378.6738 Q922.1553,378.6738 922.7488,378.4041 Q923.3423,378.1343 923.9731,377.5532 Z "/><text fill="#000000" font-family="sans-serif" font-size="12" font-style="italic" lengthAdjust="spacingAndGlyphs" textLength="122" x="933" y="372.1016">«kivy.uix.label.Label»</text><text fill="#000000" font-family="sans-serif" font-size="12" lengthAdjust="spacingAndGlyphs" textLength="79" x="954.5" y="386.2344">NumericLabel</text><line style="stroke: #008000; stroke-width: 1.5;" x1="907" x2="1055" y1="393.7656" y2="393.7656"/><ellipse cx="917" cy="405.7432" fill="none" rx="3" ry="3" style="stroke: #038048; stroke-width: 1.0;"/><text fill="#000000" font-family="sans-serif" font-size="11" lengthAdjust="spacingAndGlyphs" textLength="39" x="926" y="408.4004">str text</text><line style="stroke: #008000; stroke-width: 1.5;" x1="907" x2="1055" y1="414.7207" y2="414.7207"/><!--class informatic.weather.StatusLabel--><rect fill="#98FB98" filter="url(#f3ohwo3p0ccv5)" height="67.2207" id="informatic.weather.StatusLabel" style="stroke: #008000; stroke-width: 1.5;" width="150" x="1091" y="355.5"/><ellipse cx="1106" cy="374.6328" fill="#ADD1B2" rx="11" ry="11" style="stroke: #008000; stroke-width: 1.0;"/><path d="M1108.9731,380.2759 Q1108.3921,380.5747 1107.7529,380.7241 Q1107.1138,380.8735 1106.4082,380.8735 Q1103.9014,380.8735 1102.5815,379.2217 Q1101.2617,377.5698 1101.2617,374.4487 Q1101.2617,371.3193 1102.5815,369.6675 Q1103.9014,368.0156 1106.4082,368.0156 Q1107.1138,368.0156 1107.7612,368.165 Q1108.4087,368.3145 1108.9731,368.6133 L1108.9731,371.3359 Q1108.3423,370.7549 1107.7488,370.4851 Q1107.1553,370.2153 1106.5244,370.2153 Q1105.1797,370.2153 1104.4949,371.282 Q1103.8101,372.3486 1103.8101,374.4487 Q1103.8101,376.5405 1104.4949,377.6072 Q1105.1797,378.6738 1106.5244,378.6738 Q1107.1553,378.6738 1107.7488,378.4041 Q1108.3423,378.1343 1108.9731,377.5532 Z "/><text fill="#000000" font-family="sans-serif" font-size="12" font-style="italic" lengthAdjust="spacingAndGlyphs" textLength="122" x="1118" y="372.1016">«kivy.uix.label.Label»</text><text fill="#000000" font-family="sans-serif" font-size="12" lengthAdjust="spacingAndGlyphs" textLength="65" x="1146.5" y="386.2344">StatusLabel</text><line style="stroke: #008000; stroke-width: 1.5;" x1="1092" x2="1240" y1="393.7656" y2="393.7656"/><ellipse cx="1102" cy="405.7432" fill="none" rx="3" ry="3" style="stroke: #038048; stroke-width: 1.0;"/><text fill="#000000" font-family="sans-serif" font-size="11" lengthAdjust="spacingAndGlyphs" textLength="39" x="1111" y="408.4004">str text</text><line style="stroke: #008000; stroke-width: 1.5;" x1="1092" x2="1240" y1="414.7207" y2="414.7207"/><!--class informatic.weather.DayLabel--><rect fill="#98FB98" filter="url(#f3ohwo3p0ccv5)" height="67.2207" id="informatic.weather.DayLabel" style="stroke: #008000; stroke-width: 1.5;" width="150" x="135" y="355.5"/><ellipse cx="150" cy="374.6328" fill="#ADD1B2" rx="11" ry="11" style="stroke: #008000; stroke-width: 1.0;"/><path d="M152.9731,380.2759 Q152.3921,380.5747 151.7529,380.7241 Q151.1138,380.8735 150.4082,380.8735 Q147.9014,380.8735 146.5815,379.2217 Q145.2617,377.5698 145.2617,374.4487 Q145.2617,371.3193 146.5815,369.6675 Q147.9014,368.0156 150.4082,368.0156 Q151.1138,368.0156 151.7612,368.165 Q152.4087,368.3145 152.9731,368.6133 L152.9731,371.3359 Q152.3423,370.7549 151.7488,370.4851 Q151.1553,370.2153 150.5244,370.2153 Q149.1797,370.2153 148.4949,371.282 Q147.8101,372.3486 147.8101,374.4487 Q147.8101,376.5405 148.4949,377.6072 Q149.1797,378.6738 150.5244,378.6738 Q151.1553,378.6738 151.7488,378.4041 Q152.3423,378.1343 152.9731,377.5532 Z "/><text fill="#000000" font-family="sans-serif" font-size="12" font-style="italic" lengthAdjust="spacingAndGlyphs" textLength="122" x="162" y="372.1016">«kivy.uix.label.Label»</text><text fill="#000000" font-family="sans-serif" font-size="12" lengthAdjust="spacingAndGlyphs" textLength="53" x="196.5" y="386.2344">DayLabel</text><line style="stroke: #008000; stroke-width: 1.5;" x1="136" x2="284" y1="393.7656" y2="393.7656"/><ellipse cx="146" cy="405.7432" fill="none" rx="3" ry="3" style="stroke: #038048; stroke-width: 1.0;"/><text fill="#000000" font-family="sans-serif" font-size="11" lengthAdjust="spacingAndGlyphs" textLength="39" x="155" y="408.4004">str text</text><line style="stroke: #008000; stroke-width: 1.5;" x1="136" x2="284" y1="414.7207" y2="414.7207"/><!--class informatic.weather.ForecastIcon--><rect fill="#98FB98" filter="url(#f3ohwo3p0ccv5)" height="67.2207" id="informatic.weather.ForecastIcon" style="stroke: #008000; stroke-width: 1.5;" width="194" x="320" y="355.5"/><ellipse cx="335" cy="374.6328" fill="#ADD1B2" rx="11" ry="11" style="stroke: #008000; stroke-width: 1.0;"/><path d="M337.9731,380.2759 Q337.3921,380.5747 336.7529,380.7241 Q336.1138,380.8735 335.4082,380.8735 Q332.9014,380.8735 331.5815,379.2217 Q330.2617,377.5698 330.2617,374.4487 Q330.2617,371.3193 331.5815,369.6675 Q332.9014,368.0156 335.4082,368.0156 Q336.1138,368.0156 336.7612,368.165 Q337.4087,368.3145 337.9731,368.6133 L337.9731,371.3359 Q337.3423,370.7549 336.7488,370.4851 Q336.1553,370.2153 335.5244,370.2153 Q334.1797,370.2153 333.4949,371.282 Q332.8101,372.3486 332.8101,374.4487 Q332.8101,376.5405 333.4949,377.6072 Q334.1797,378.6738 335.5244,378.6738 Q336.1553,378.6738 336.7488,378.4041 Q337.3423,378.1343 337.9731,377.5532 Z "/><text fill="#000000" font-family="sans-serif" font-size="12" font-style="italic" lengthAdjust="spacingAndGlyphs" textLength="166" x="347" y="372.1016">«kivy.uix.image.AsyncImage»</text><text fill="#000000" font-family="sans-serif" font-size="12" lengthAdjust="spacingAndGlyphs" textLength="71" x="394.5" y="386.2344">ForecastIcon</text><line style="stroke: #008000; stroke-width: 1.5;" x1="321" x2="513" y1="393.7656" y2="393.7656"/><ellipse cx="331" cy="405.7432" fill="none" rx="3" ry="3" style="stroke: #038048; stroke-width: 1.0;"/><text fill="#000000" font-family="sans-serif" font-size="11" lengthAdjust="spacingAndGlyphs" textLength="55" x="340" y="408.4004">str source</text><line style="stroke: #008000; stroke-width: 1.5;" x1="321" x2="513" y1="414.7207" y2="414.7207"/><!--class informatic.weather.ForecastGrid--><rect fill="#98FB98" filter="url(#f3ohwo3p0ccv5)" height="80.1758" id="informatic.weather.ForecastGrid" style="stroke: #008000; stroke-width: 1.5;" width="210" x="403" y="183"/><ellipse cx="418" cy="202.1328" fill="#ADD1B2" rx="11" ry="11" style="stroke: #008000; stroke-width: 1.0;"/><path d="M420.9731,207.7759 Q420.3921,208.0747 419.7529,208.2241 Q419.1138,208.3735 418.4082,208.3735 Q415.9014,208.3735 414.5815,206.7217 Q413.2617,205.0698 413.2617,201.9487 Q413.2617,198.8193 414.5815,197.1675 Q415.9014,195.5156 418.4082,195.5156 Q419.1138,195.5156 419.7612,195.665 Q420.4087,195.8145 420.9731,196.1133 L420.9731,198.8359 Q420.3423,198.2549 419.7488,197.9851 Q419.1553,197.7153 418.5244,197.7153 Q417.1797,197.7153 416.4949,198.782 Q415.8101,199.8486 415.8101,201.9487 Q415.8101,204.0405 416.4949,205.1072 Q417.1797,206.1738 418.5244,206.1738 Q419.1553,206.1738 419.7488,205.9041 Q420.3423,205.6343 420.9731,205.0532 Z "/><text fill="#000000" font-family="sans-serif" font-size="12" font-style="italic" lengthAdjust="spacingAndGlyphs" textLength="182" x="430" y="199.6016">«kivy.uix.gridlayout.GridLayout»</text><text fill="#000000" font-family="sans-serif" font-size="12" lengthAdjust="spacingAndGlyphs" textLength="73" x="484.5" y="213.7344">ForecastGrid</text><line style="stroke: #008000; stroke-width: 1.5;" x1="404" x2="612" y1="221.2656" y2="221.2656"/><ellipse cx="414" cy="233.2432" fill="none" rx="3" ry="3" style="stroke: #038048; stroke-width: 1.0;"/><text fill="#000000" font-family="sans-serif" font-size="11" lengthAdjust="spacingAndGlyphs" textLength="88" x="423" y="235.9004">Weather weather</text><ellipse cx="414" cy="246.1982" fill="none" rx="3" ry="3" style="stroke: #038048; stroke-width: 1.0;"/><text fill="#000000" font-family="sans-serif" font-size="11" lengthAdjust="spacingAndGlyphs" textLength="64" x="423" y="248.8555">dict widgets</text><line style="stroke: #008000; stroke-width: 1.5;" x1="404" x2="612" y1="255.1758" y2="255.1758"/><!--class informatic.weather.TodayGrid--><rect fill="#98FB98" filter="url(#f3ohwo3p0ccv5)" height="80.1758" id="informatic.weather.TodayGrid" style="stroke: #008000; stroke-width: 1.5;" width="210" x="740" y="183"/><ellipse cx="755" cy="202.1328" fill="#ADD1B2" rx="11" ry="11" style="stroke: #008000; stroke-width: 1.0;"/><path d="M757.9731,207.7759 Q757.3921,208.0747 756.7529,208.2241 Q756.1138,208.3735 755.4082,208.3735 Q752.9014,208.3735 751.5815,206.7217 Q750.2617,205.0698 750.2617,201.9487 Q750.2617,198.8193 751.5815,197.1675 Q752.9014,195.5156 755.4082,195.5156 Q756.1138,195.5156 756.7612,195.665 Q757.4087,195.8145 757.9731,196.1133 L757.9731,198.8359 Q757.3423,198.2549 756.7488,197.9851 Q756.1553,197.7153 755.5244,197.7153 Q754.1797,197.7153 753.4949,198.782 Q752.8101,199.8486 752.8101,201.9487 Q752.8101,204.0405 753.4949,205.1072 Q754.1797,206.1738 755.5244,206.1738 Q756.1553,206.1738 756.7488,205.9041 Q757.3423,205.6343 757.9731,205.0532 Z "/><text fill="#000000" font-family="sans-serif" font-size="12" font-style="italic" lengthAdjust="spacingAndGlyphs" textLength="182" x="767" y="199.6016">«kivy.uix.gridlayout.GridLayout»</text><text fill="#000000" font-family="sans-serif" font-size="12" lengthAdjust="spacingAndGlyphs" textLength="61" x="827.5" y="213.7344">TodayGrid</text><line style="stroke: #008000; stroke-width: 1.5;" x1="741" x2="949" y1="221.2656" y2="221.2656"/><ellipse cx="751" cy="233.2432" fill="none" rx="3" ry="3" style="stroke: #038048; stroke-width: 1.0;"/><text fill="#000000" font-family="sans-serif" font-size="11" lengthAdjust="spacingAndGlyphs" textLength="88" x="760" y="235.9004">Weather weather</text><ellipse cx="751" cy="246.1982" fill="none" rx="3" ry="3" style="stroke: #038048; stroke-width: 1.0;"/><text fill="#000000" font-family="sans-serif" font-size="11" lengthAdjust="spacingAndGlyphs" textLength="64" x="760" y="248.8555">dict widgets</text><line style="stroke: #008000; stroke-width: 1.5;" x1="741" x2="949" y1="255.1758" y2="255.1758"/><!--class informatic.weather.TodayTitle--><rect fill="#98FB98" filter="url(#f3ohwo3p0ccv5)" height="67.2207" id="informatic.weather.TodayTitle" style="stroke: #008000; stroke-width: 1.5;" width="150" x="985" y="189.5"/><ellipse cx="1000" cy="208.6328" fill="#ADD1B2" rx="11" ry="11" style="stroke: #008000; stroke-width: 1.0;"/><path d="M1002.9731,214.2759 Q1002.3921,214.5747 1001.7529,214.7241 Q1001.1138,214.8735 1000.4082,214.8735 Q997.9014,214.8735 996.5815,213.2217 Q995.2617,211.5698 995.2617,208.4487 Q995.2617,205.3193 996.5815,203.6675 Q997.9014,202.0156 1000.4082,202.0156 Q1001.1138,202.0156 1001.7612,202.165 Q1002.4087,202.3145 1002.9731,202.6133 L1002.9731,205.3359 Q1002.3423,204.7549 1001.7488,204.4851 Q1001.1553,204.2153 1000.5244,204.2153 Q999.1797,204.2153 998.4949,205.282 Q997.8101,206.3486 997.8101,208.4487 Q997.8101,210.5405 998.4949,211.6072 Q999.1797,212.6738 1000.5244,212.6738 Q1001.1553,212.6738 1001.7488,212.4041 Q1002.3423,212.1343 1002.9731,211.5532 Z "/><text fill="#000000" font-family="sans-serif" font-size="12" font-style="italic" lengthAdjust="spacingAndGlyphs" textLength="122" x="1012" y="206.1016">«kivy.uix.label.Label»</text><text fill="#000000" font-family="sans-serif" font-size="12" lengthAdjust="spacingAndGlyphs" textLength="61" x="1042.5" y="220.2344">TodayTitle</text><line style="stroke: #008000; stroke-width: 1.5;" x1="986" x2="1134" y1="227.7656" y2="227.7656"/><ellipse cx="996" cy="239.7432" fill="none" rx="3" ry="3" style="stroke: #038048; stroke-width: 1.0;"/><text fill="#000000" font-family="sans-serif" font-size="11" lengthAdjust="spacingAndGlyphs" textLength="39" x="1005" y="242.4004">str text</text><line style="stroke: #008000; stroke-width: 1.5;" x1="986" x2="1134" y1="248.7207" y2="248.7207"/><!--class informatic.weather.ForecastTitle--><rect fill="#98FB98" filter="url(#f3ohwo3p0ccv5)" height="67.2207" id="informatic.weather.ForecastTitle" style="stroke: #008000; stroke-width: 1.5;" width="150" x="218" y="189.5"/><ellipse cx="233" cy="208.6328" fill="#ADD1B2" rx="11" ry="11" style="stroke: #008000; stroke-width: 1.0;"/><path d="M235.9731,214.2759 Q235.3921,214.5747 234.7529,214.7241 Q234.1138,214.8735 233.4082,214.8735 Q230.9014,214.8735 229.5815,213.2217 Q228.2617,211.5698 228.2617,208.4487 Q228.2617,205.3193 229.5815,203.6675 Q230.9014,202.0156 233.4082,202.0156 Q234.1138,202.0156 234.7612,202.165 Q235.4087,202.3145 235.9731,202.6133 L235.9731,205.3359 Q235.3423,204.7549 234.7488,204.4851 Q234.1553,204.2153 233.5244,204.2153 Q232.1797,204.2153 231.4949,205.282 Q230.8101,206.3486 230.8101,208.4487 Q230.8101,210.5405 231.4949,211.6072 Q232.1797,212.6738 233.5244,212.6738 Q234.1553,212.6738 234.7488,212.4041 Q235.3423,212.1343 235.9731,211.5532 Z "/><text fill="#000000" font-family="sans-serif" font-size="12" font-style="italic" lengthAdjust="spacingAndGlyphs" textLength="122" x="245" y="206.1016">«kivy.uix.label.Label»</text><text fill="#000000" font-family="sans-serif" font-size="12" lengthAdjust="spacingAndGlyphs" textLength="73" x="269.5" y="220.2344">ForecastTitle</text><line style="stroke: #008000; stroke-width: 1.5;" x1="219" x2="367" y1="227.7656" y2="227.7656"/><ellipse cx="229" cy="239.7432" fill="none" rx="3" ry="3" style="stroke: #038048; stroke-width: 1.0;"/><text fill="#000000" font-family="sans-serif" font-size="11" lengthAdjust="spacingAndGlyphs" textLength="39" x="238" y="242.4004">str text</text><line style="stroke: #008000; stroke-width: 1.5;" x1="219" x2="367" y1="248.7207" y2="248.7207"/><!--class informatic.weather.TodayBox--><rect fill="#98FB98" filter="url(#f3ohwo3p0ccv5)" height="80.1758" id="informatic.weather.TodayBox" style="stroke: #008000; stroke-width: 1.5;" width="205" x="849.5" y="43"/><ellipse cx="864.5" cy="62.1328" fill="#ADD1B2" rx="11" ry="11" style="stroke: #008000; stroke-width: 1.0;"/><path d="M867.4731,67.7759 Q866.8921,68.0747 866.2529,68.2241 Q865.6138,68.3735 864.9082,68.3735 Q862.4014,68.3735 861.0815,66.7217 Q859.7617,65.0698 859.7617,61.9487 Q859.7617,58.8193 861.0815,57.1675 Q862.4014,55.5156 864.9082,55.5156 Q865.6138,55.5156 866.2612,55.665 Q866.9087,55.8145 867.4731,56.1133 L867.4731,58.8359 Q866.8423,58.2549 866.2488,57.9851 Q865.6553,57.7153 865.0244,57.7153 Q863.6797,57.7153 862.9949,58.782 Q862.3101,59.8486 862.3101,61.9487 Q862.3101,64.0405 862.9949,65.1072 Q863.6797,66.1738 865.0244,66.1738 Q865.6553,66.1738 866.2488,65.9041 Q866.8423,65.6343 867.4731,65.0532 Z "/><text fill="#000000" font-family="sans-serif" font-size="12" font-style="italic" lengthAdjust="spacingAndGlyphs" textLength="177" x="876.5" y="59.6016">«kivy.uix.boxlayout.BoxLayout»</text><text fill="#000000" font-family="sans-serif" font-size="12" lengthAdjust="spacingAndGlyphs" textLength="57" x="936.5" y="73.7344">TodayBox</text><line style="stroke: #008000; stroke-width: 1.5;" x1="850.5" x2="1053.5" y1="81.2656" y2="81.2656"/><ellipse cx="860.5" cy="93.2432" fill="none" rx="3" ry="3" style="stroke: #038048; stroke-width: 1.0;"/><text fill="#000000" font-family="sans-serif" font-size="11" lengthAdjust="spacingAndGlyphs" textLength="79" x="869.5" y="95.9004">TodayTitle title</text><ellipse cx="860.5" cy="106.1982" fill="none" rx="3" ry="3" style="stroke: #038048; stroke-width: 1.0;"/><text fill="#000000" font-family="sans-serif" font-size="11" lengthAdjust="spacingAndGlyphs" textLength="81" x="869.5" y="108.8555">TodayGrid grid</text><line style="stroke: #008000; stroke-width: 1.5;" x1="850.5" x2="1053.5" y1="115.1758" y2="115.1758"/><!--class informatic.weather.ForecastBox--><rect fill="#98FB98" filter="url(#f3ohwo3p0ccv5)" height="80.1758" id="informatic.weather.ForecastBox" style="stroke: #008000; stroke-width: 1.5;" width="205" x="298.5" y="43"/><ellipse cx="313.5" cy="62.1328" fill="#ADD1B2" rx="11" ry="11" style="stroke: #008000; stroke-width: 1.0;"/><path d="M316.4731,67.7759 Q315.8921,68.0747 315.2529,68.2241 Q314.6138,68.3735 313.9082,68.3735 Q311.4014,68.3735 310.0815,66.7217 Q308.7617,65.0698 308.7617,61.9487 Q308.7617,58.8193 310.0815,57.1675 Q311.4014,55.5156 313.9082,55.5156 Q314.6138,55.5156 315.2612,55.665 Q315.9087,55.8145 316.4731,56.1133 L316.4731,58.8359 Q315.8423,58.2549 315.2488,57.9851 Q314.6553,57.7153 314.0244,57.7153 Q312.6797,57.7153 311.9949,58.782 Q311.3101,59.8486 311.3101,61.9487 Q311.3101,64.0405 311.9949,65.1072 Q312.6797,66.1738 314.0244,66.1738 Q314.6553,66.1738 315.2488,65.9041 Q315.8423,65.6343 316.4731,65.0532 Z "/><text fill="#000000" font-family="sans-serif" font-size="12" font-style="italic" lengthAdjust="spacingAndGlyphs" textLength="177" x="325.5" y="59.6016">«kivy.uix.boxlayout.BoxLayout»</text><text fill="#000000" font-family="sans-serif" font-size="12" lengthAdjust="spacingAndGlyphs" textLength="69" x="379.5" y="73.7344">ForecastBox</text><line style="stroke: #008000; stroke-width: 1.5;" x1="299.5" x2="502.5" y1="81.2656" y2="81.2656"/><ellipse cx="309.5" cy="93.2432" fill="none" rx="3" ry="3" style="stroke: #038048; stroke-width: 1.0;"/><text fill="#000000" font-family="sans-serif" font-size="11" lengthAdjust="spacingAndGlyphs" textLength="92" x="318.5" y="95.9004">ForecastTitle title</text><ellipse cx="309.5" cy="106.1982" fill="none" rx="3" ry="3" style="stroke: #038048; stroke-width: 1.0;"/><text fill="#000000" font-family="sans-serif" font-size="11" lengthAdjust="spacingAndGlyphs" textLength="94" x="318.5" y="108.8555">ForecastGrid grid</text><line style="stroke: #008000; stroke-width: 1.5;" x1="299.5" x2="502.5" y1="115.1758" y2="115.1758"/><!--class informatic.weather.row--><rect fill="#00FFFF" filter="url(#f3ohwo3p0ccv5)" height="119.041" id="informatic.weather.row" style="stroke: #00008B; stroke-width: 1.5;" width="185" x="557.5" y="515"/><ellipse cx="631.25" cy="534.1328" fill="#DA70D6" rx="11" ry="11" style="stroke: #00008B; stroke-width: 1.0;"/><path d="M630.8359,529.9478 L630.8359,537.9248 L631.5,537.9248 Q632.9443,537.9248 633.5586,537.0159 Q634.1729,536.1069 634.1729,533.9238 Q634.1729,531.7573 633.5586,530.8525 Q632.9443,529.9478 631.5,529.9478 Z M628.3872,527.7397 L631.0103,527.7397 Q634.0483,527.7397 635.3848,529.1882 Q636.7212,530.6367 636.7212,533.9238 Q636.7212,537.2192 635.3848,538.676 Q634.0483,540.1328 631.0103,540.1328 L628.3872,540.1328 Z "/><text fill="#000000" font-family="sans-serif" font-size="12" font-style="italic" lengthAdjust="spacingAndGlyphs" textLength="33" x="649.75" y="531.6016">«dict»</text><text fill="#000000" font-family="sans-serif" font-size="12" lengthAdjust="spacingAndGlyphs" textLength="21" x="655.75" y="545.7344">row</text><line style="stroke: #00008B; stroke-width: 1.5;" x1="558.5" x2="741.5" y1="553.2656" y2="553.2656"/><text fill="#000000" font-family="sans-serif" font-size="11" lengthAdjust="spacingAndGlyphs" textLength="139" x="563.5" y="567.9004">status: kivy.uix.label.Label</text><text fill="#000000" font-family="sans-serif" font-size="11" lengthAdjust="spacingAndGlyphs" textLength="173" x="563.5" y="580.8555">icon: kivy.uix.image.AsyncImage</text><text fill="#000000" font-family="sans-serif" font-size="11" lengthAdjust="spacingAndGlyphs" textLength="130" x="563.5" y="593.8105">high: kivy.uix.label.Label</text><text fill="#000000" font-family="sans-serif" font-size="11" lengthAdjust="spacingAndGlyphs" textLength="124" x="563.5" y="606.7656">low: kivy.uix.label.Label</text><text fill="#000000" font-family="sans-serif" font-size="11" lengthAdjust="spacingAndGlyphs" textLength="146" x="563.5" y="619.7207">current: kivy.uix.label.Label</text><line style="stroke: #00008B; stroke-width: 1.5;" x1="558.5" x2="741.5" y1="626.041" y2="626.041"/><!--class informatic.weather.grid--><rect fill="#00FFFF" filter="url(#f3ohwo3p0ccv5)" height="119.041" id="informatic.weather.grid" style="stroke: #00008B; stroke-width: 1.5;" width="78" x="22" y="329.5"/><ellipse cx="44.65" cy="348.6328" fill="#DA70D6" rx="11" ry="11" style="stroke: #00008B; stroke-width: 1.0;"/><path d="M44.2359,344.4478 L44.2359,352.4248 L44.9,352.4248 Q46.3443,352.4248 46.9586,351.5159 Q47.5729,350.6069 47.5729,348.4238 Q47.5729,346.2573 46.9586,345.3525 Q46.3443,344.4478 44.9,344.4478 Z M41.7872,342.2397 L44.4103,342.2397 Q47.4483,342.2397 48.7848,343.6882 Q50.1212,345.1367 50.1212,348.4238 Q50.1212,351.7192 48.7848,353.176 Q47.4483,354.6328 44.4103,354.6328 L41.7872,354.6328 Z "/><text fill="#000000" font-family="sans-serif" font-size="12" font-style="italic" lengthAdjust="spacingAndGlyphs" textLength="33" x="58.35" y="346.1016">«dict»</text><text fill="#000000" font-family="sans-serif" font-size="12" lengthAdjust="spacingAndGlyphs" textLength="23" x="63.35" y="360.2344">grid</text><line style="stroke: #00008B; stroke-width: 1.5;" x1="23" x2="99" y1="367.7656" y2="367.7656"/><text fill="#000000" font-family="sans-serif" font-size="11" lengthAdjust="spacingAndGlyphs" textLength="59" x="28" y="382.4004">status: row</text><text fill="#000000" font-family="sans-serif" font-size="11" lengthAdjust="spacingAndGlyphs" textLength="49" x="28" y="395.3555">icon: row</text><text fill="#000000" font-family="sans-serif" font-size="11" lengthAdjust="spacingAndGlyphs" textLength="50" x="28" y="408.3105">high: row</text><text fill="#000000" font-family="sans-serif" font-size="11" lengthAdjust="spacingAndGlyphs" textLength="44" x="28" y="421.2656">low: row</text><text fill="#000000" font-family="sans-serif" font-size="11" lengthAdjust="spacingAndGlyphs" textLength="66" x="28" y="434.2207">current: row</text><line style="stroke: #00008B; stroke-width: 1.5;" x1="23" x2="99" y1="440.541" y2="440.541"/><!--link informatic.weather.TodayBox to informatic.weather.TodayTitle--><path d="M982.9485,123.1184 C996.4325,140.5977 1012.2774,161.1373 1026.0809,179.0307 " fill="none" id="informatic.weather.TodayBox-informatic.weather.TodayTitle" style="stroke: #191970; stroke-width: 1.0;"/><polygon fill="#191970" points="1034.1549,189.4971,1033.6571,182.3032,1026.8252,179.9958,1027.3229,187.1897,1034.1549,189.4971" style="stroke: #191970; stroke-width: 1.0;"/><!--link informatic.weather.TodayBox to informatic.weather.TodayGrid--><path d="M921.3381,123.1184 C909.5854,138.4957 896.0226,156.2414 883.6192,172.4703 " fill="none" id="informatic.weather.TodayBox-informatic.weather.TodayGrid" style="stroke: #191970; stroke-width: 1.0;"/><polygon fill="#191970" points="875.6664,182.8758,882.4879,180.5377,882.9533,173.3416,876.1318,175.6797,875.6664,182.8758" style="stroke: #191970; stroke-width: 1.0;"/><!--link informatic.weather.TodayGrid to informatic.weather.NumericLabel--><path d="M877.9218,263.184 C898.2351,287.9782 924.2995,319.792 945.136,345.2249 " fill="none" id="informatic.weather.TodayGrid-informatic.weather.NumericLabel" style="stroke: #191970; stroke-width: 1.0;"/><polygon fill="#191970" points="953.4221,355.3387,952.7138,348.1625,945.8172,346.0562,946.5255,353.2324,953.4221,355.3387" style="stroke: #191970; stroke-width: 1.0;"/><!--link informatic.weather.TodayGrid to informatic.weather.StatusLabel--><path d="M949.2718,263.0712 C989.1972,279.8148 1034.5907,300.5918 1074,323 C1086.9522,330.3646 1100.2996,339.154 1112.6729,347.8789 " fill="none" id="informatic.weather.TodayGrid-informatic.weather.StatusLabel" style="stroke: #191970; stroke-width: 1.0;"/><polygon fill="#191970" points="1123.2612,355.4922,1120.7249,348.7418,1113.5183,348.4868,1116.0546,355.2371,1123.2612,355.4922" style="stroke: #191970; stroke-width: 1.0;"/><!--link informatic.weather.TodayGrid to informatic.weather.DayLabel--><path d="M739.9782,242.7137 C705.2868,249.2034 666.4936,256.4365 631,263 C485.2739,289.9478 439.5525,265.418 303,323 C288.1777,329.2504 273.396,338.1815 260.1222,347.4622 " fill="none" id="informatic.weather.TodayGrid-informatic.weather.DayLabel" style="stroke: #191970; stroke-width: 1.0;"/><polygon fill="#191970" points="249.3591,355.2889,256.5642,354.9952,259.0643,348.2314,251.8592,348.5251,249.3591,355.2889" style="stroke: #191970; stroke-width: 1.0;"/><!--link informatic.weather.TodayGrid to informatic.weather.ForecastIcon--><path d="M739.6931,250.6038 C677.9847,268.258 599.2088,293.3783 532,323 C515.2192,330.396 497.746,339.5802 481.6363,348.7235 " fill="none" id="informatic.weather.TodayGrid-informatic.weather.ForecastIcon" style="stroke: #191970; stroke-width: 1.0;"/><polygon fill="#191970" points="470.1764,355.3478,477.3728,355.8082,480.5656,349.3424,473.3692,348.882,470.1764,355.3478" style="stroke: #191970; stroke-width: 1.0;"/><!--link informatic.weather.TodayGrid to informatic.weather.Weather--><path d="M812.3203,263.184 C800.2359,278.0433 786.1012,295.4238 772.2618,312.441 " fill="none" id="informatic.weather.TodayGrid-informatic.weather.Weather" style="stroke: #191970; stroke-width: 1.0;"/><polygon fill="#191970" points="763.7041,322.9639,770.5931,320.8327,771.2754,313.6539,764.3864,315.7852,763.7041,322.9639" style="stroke: #191970; stroke-width: 1.0;"/><!--link informatic.weather.ForecastBox to informatic.weather.ForecastTitle--><path d="M370.0515,123.1184 C356.5675,140.5977 340.7226,161.1373 326.9191,179.0307 " fill="none" id="informatic.weather.ForecastBox-informatic.weather.ForecastTitle" style="stroke: #A80036; stroke-width: 1.0;"/><polygon fill="#A80036" points="318.8451,189.4971,325.6771,187.1897,326.1748,179.9958,319.3429,182.3032,318.8451,189.4971" style="stroke: #A80036; stroke-width: 1.0;"/><!--link informatic.weather.ForecastGrid to informatic.weather.NumericLabel--><path d="M613.0981,240.1052 C691.4119,255.3291 799.6258,281.6909 888,323 C902.2926,329.6809 916.6984,338.5975 929.7621,347.7108 " fill="none" id="informatic.weather.ForecastGrid-informatic.weather.NumericLabel" style="stroke: #A80036; stroke-width: 1.0;"/><polygon fill="#A80036" points="940.388,355.3674,937.8585,348.6145,930.6522,348.3521,933.1817,355.105,940.388,355.3674" style="stroke: #A80036; stroke-width: 1.0;"/><!--link informatic.weather.ForecastGrid to informatic.weather.StatusLabel--><path d="M613.1979,242.8899 C648.1183,249.4074 687.2123,256.6125 723,263 C878.8006,290.8078 927.973,261.9819 1074,323 C1088.7367,329.1578 1103.3863,338.0551 1116.5198,347.3328 " fill="none" id="informatic.weather.ForecastGrid-informatic.weather.StatusLabel" style="stroke: #A80036; stroke-width: 1.0;"/><polygon fill="#A80036" points="1127.1639,355.1636,1124.7013,348.386,1117.4979,348.0524,1119.9605,354.83,1127.1639,355.1636" style="stroke: #A80036; stroke-width: 1.0;"/><!--link informatic.weather.ForecastGrid to informatic.weather.DayLabel--><path d="M417.7885,263.1009 C381.4258,280.2635 339.5243,301.3282 303,323 C290.4853,330.4256 277.4906,339.0278 265.3232,347.5189 " fill="none" id="informatic.weather.ForecastGrid-informatic.weather.DayLabel" style="stroke: #A80036; stroke-width: 1.0;"/><polygon fill="#A80036" points="254.4191,355.2486,261.6272,355.0419,264.2088,348.3088,257.0007,348.5154,254.4191,355.2486" style="stroke: #A80036; stroke-width: 1.0;"/><!--link informatic.weather.ForecastGrid to informatic.weather.ForecastIcon--><path d="M485.9714,263.184 C472.6211,287.5374 455.5582,318.6631 441.7441,343.8625 " fill="none" id="informatic.weather.ForecastGrid-informatic.weather.ForecastIcon" style="stroke: #A80036; stroke-width: 1.0;"/><polygon fill="#A80036" points="435.4529,355.3387,441.8446,352.0002,441.2213,344.8161,434.8296,348.1546,435.4529,355.3387" style="stroke: #A80036; stroke-width: 1.0;"/><!--link informatic.weather.ForecastBox to informatic.weather.ForecastGrid--><path d="M431.6619,123.1184 C443.4146,138.4957 456.9774,156.2414 469.3808,172.4703 " fill="none" id="informatic.weather.ForecastBox-informatic.weather.ForecastGrid" style="stroke: #A80036; stroke-width: 1.0;"/><polygon fill="#A80036" points="477.3336,182.8758,476.8682,175.6797,470.0467,173.3416,470.5121,180.5377,477.3336,182.8758" style="stroke: #A80036; stroke-width: 1.0;"/><!--link informatic.weather.ForecastGrid to informatic.weather.Weather--><path d="M556.8986,263.184 C575.748,278.6741 597.9314,296.904 619.4725,314.6061 " fill="none" id="informatic.weather.ForecastGrid-informatic.weather.Weather" style="stroke: #A80036; stroke-width: 1.0;"/><polygon fill="#A80036" points="629.6428,322.9639,627.5468,316.0641,620.3717,315.3451,622.4676,322.2449,629.6428,322.9639" style="stroke: #A80036; stroke-width: 1.0;"/><!--link informatic.weather.TodayGrid to informatic.weather.row--><path d="M950.1147,258.0332 C956.1464,259.7783 962.1392,261.4479 968,263 C1095.6536,296.805 1175.583,220.629 1259,323 C1296.0591,368.4797 1296.2764,409.6983 1259,455 C1196.511,530.9424 913.4582,559.343 756.1875,569.3882 " fill="none" id="informatic.weather.TodayGrid-informatic.weather.row" style="stroke: #A80036; stroke-width: 1.0;"/><polygon fill="#A80036" points="742.7653,570.2205,749.0014,573.8415,754.7423,569.4778,748.5062,565.8568,742.7653,570.2205" style="stroke: #A80036; stroke-width: 1.0;"/><!--link informatic.weather.ForecastGrid to informatic.weather.grid--><path d="M402.7188,258.2206 C397.0792,259.8874 391.4802,261.4919 386,263 C268.3149,295.385 222.7328,260.3134 118,323 C115.3145,324.6073 112.6911,326.3855 110.1372,328.2963 " fill="none" id="informatic.weather.ForecastGrid-informatic.weather.grid" style="stroke: #A80036; stroke-width: 1.0;"/><polygon fill="#A80036" points="100.0488,336.8016,107.2144,335.9924,109.2234,329.0668,102.0578,329.876,100.0488,336.8016" style="stroke: #A80036; stroke-width: 1.0;"/><!--link informatic.weather.grid to informatic.weather.row--><path d="M100.0515,441.194 C105.6197,446.4169 111.6358,451.1877 118,455 C188.8788,497.4578 410.4568,537.5763 544.2593,558.8045 " fill="none" id="informatic.weather.grid-informatic.weather.row" style="stroke: #A80036; stroke-width: 1.0;"/><polygon fill="#A80036" points="557.3252,560.8617,552.0204,555.9771,545.4712,558.9952,550.7761,563.8798,557.3252,560.8617" style="stroke: #A80036; stroke-width: 1.0;"/><!--
@startuml

skinparam class {
    BackgroundColor<< kivy.uix.label.Label >> PaleGreen
  	ArrowColor<< kivy.uix.label.Label >> SeaGreen
  	BorderColor<< kivy.uix.label.Label >> Green
    BackgroundColor<< kivy.uix.gridlayout.GridLayout >> PaleGreen
  	ArrowColor<< kivy.uix.gridlayout.GridLayout >> SeaGreen
  	BorderColor<< kivy.uix.gridlayout.GridLayout >> Green
    BackgroundColor<< kivy.uix.boxlayout.BoxLayout >> PaleGreen
  	ArrowColor<< kivy.uix.boxlayout.BoxLayout >> SeaGreen
  	BorderColor<< kivy.uix.boxlayout.BoxLayout >> Green
    BackgroundColor<< kivy.uix.image.AsyncImage >> PaleGreen
  	ArrowColor<< kivy.uix.image.AsyncImage >> SeaGreen
  	BorderColor<< kivy.uix.image.AsyncImage >> Green
    BackgroundColor<< object >> Cyan
  	ArrowColor<< object >> SeaGreen
  	BorderColor<< object >> DarkBlue
    BackgroundColor<< dict >> Cyan
  	ArrowColor<< dict >> SeaGreen
  	BorderColor<< dict >> DarkBlue
}


namespace informatic.weather {
    class Weather<< object >> {
        + pyowm.webapi25.owm25.OWM25 owm
        + pyowm.webapi25.forecaster.Forecaster forecaster
        + pyowm.webapi25.forecast.Forecast forecast
        + pyowm.webapi25.observation.Observation observation
        + dict today
        + [dict] forecasts
    }

    class NumericLabel<< kivy.uix.label.Label >> #palegreen {
        + str text
    }

    class StatusLabel<< kivy.uix.label.Label >> {
        + str text
    }

    class DayLabel<< kivy.uix.label.Label >> {
        + str text
    }

    class ForecastIcon<< kivy.uix.image.AsyncImage >> {
        + str source
    }

    class ForecastGrid<< kivy.uix.gridlayout.GridLayout >> {
        + Weather weather
        + dict widgets
    }

    class TodayGrid<< kivy.uix.gridlayout.GridLayout >> {
        + Weather weather
        + dict widgets
    }

    class TodayTitle<< kivy.uix.label.Label >> {
        + str text
    }

    class ForecastTitle<< kivy.uix.label.Label >> {
        + str text
    }

    class TodayBox << kivy.uix.boxlayout.BoxLayout >> {
        + TodayTitle title
        + TodayGrid grid
    }

    class ForecastBox << kivy.uix.boxlayout.BoxLayout >> {
        + ForecastTitle title
        + ForecastGrid grid
    }

    class row << (D,orchid) dict >> {
        status: kivy.uix.label.Label
        icon: kivy.uix.image.AsyncImage
        high: kivy.uix.label.Label
        low: kivy.uix.label.Label
        current: kivy.uix.label.Label
    }

    class grid << (D,orchid) dict >> {
        status: row
        icon: row
        high: row
        low: row
        current: row
    }

    TodayBox - -[#MidnightBlue]* TodayTitle
    TodayBox - -[#MidnightBlue]* TodayGrid
    TodayGrid - -[#MidnightBlue]* NumericLabel
    TodayGrid - -[#MidnightBlue]* StatusLabel
    TodayGrid - -[#MidnightBlue]* DayLabel
    TodayGrid - -[#MidnightBlue]* ForecastIcon
    TodayGrid - -[#MidnightBlue]* Weather
    ForecastBox - -* ForecastTitle
    ForecastGrid - -* NumericLabel
    ForecastGrid - -* StatusLabel
    ForecastGrid - -* DayLabel
    ForecastGrid - -* ForecastIcon
    ForecastBox - -* ForecastGrid
    ForecastGrid - -* Weather
    TodayGrid - -* row
    ForecastGrid - -* grid
    grid - -* row
}

@enduml

PlantUML version 1.2017.14(Mon Jun 05 05:56:32 EDT 2017)
(GPL source distribution)
Java Runtime: Java(TM) SE Runtime Environment
JVM: Java HotSpot(TM) 64-Bit Server VM
Java Version: 1.8.0_144-b01
Operating System: Mac OS X
OS Version: 10.12.6
Default Encoding: UTF-8
Language: en
Country: US
--></g></svg>