<?xml version="1.0" encoding="UTF-8" standalone="no"?><svg xmlns="http://www.w3.org/2000/svg" xmlns:xlink="http://www.w3.org/1999/xlink" contentScriptType="application/ecmascript" contentStyleType="text/css" height="501px" preserveAspectRatio="none" style="width:1443px;height:501px;" version="1.1" viewBox="0 0 1443 501" width="1443px" zoomAndPan="magnify"><defs><filter height="300%" id="fvcyrgnhqodug" width="300%" x="-1" y="-1"><feGaussianBlur result="blurOut" stdDeviation="2.0"/><feColorMatrix in="blurOut" result="blurOut2" type="matrix" values="0 0 0 0 0 0 0 0 0 0 0 0 0 0 0 0 0 0 .4 0"/><feOffset dx="4.0" dy="4.0" in="blurOut2" result="blurOut3"/><feBlend in="SourceGraphic" in2="blurOut3" mode="normal"/></filter></defs><g><!--cluster weather.weather--><polygon fill="#FFFFFF" filter="url(#fvcyrgnhqodug)" points="14,16,137,16,144,38.4883,572,38.4883,572,362,14,362,14,16" style="stroke: #000000; stroke-width: 2.0;"/><line style="stroke: #000000; stroke-width: 2.0;" x1="14" x2="144" y1="38.4883" y2="38.4883"/><text fill="#000000" font-family="sans-serif" font-size="14" font-weight="bold" lengthAdjust="spacingAndGlyphs" textLength="117" x="18" y="31.5352">weather.weather</text><!--cluster weather.weatherui--><polygon fill="#FFFFFF" filter="url(#fvcyrgnhqodug)" points="580,42,717,42,724,64.4883,1421,64.4883,1421,489,580,489,580,42" style="stroke: #000000; stroke-width: 2.0;"/><line style="stroke: #000000; stroke-width: 2.0;" x1="580" x2="724" y1="64.4883" y2="64.4883"/><text fill="#000000" font-family="sans-serif" font-size="14" font-weight="bold" lengthAdjust="spacingAndGlyphs" textLength="131" x="584" y="57.5352">weather.weatherui</text><!--class weather.weather.Weather--><rect fill="#00FFFF" filter="url(#fvcyrgnhqodug)" height="131.9961" id="weather.weather.Weather" style="stroke: #00008B; stroke-width: 1.5;" width="321" x="242.5" y="43"/><ellipse cx="375.25" cy="62.1328" fill="#ADD1B2" rx="11" ry="11" style="stroke: #00008B; stroke-width: 1.0;"/><path d="M378.2231,67.7759 Q377.6421,68.0747 377.0029,68.2241 Q376.3638,68.3735 375.6582,68.3735 Q373.1514,68.3735 371.8315,66.7217 Q370.5117,65.0698 370.5117,61.9487 Q370.5117,58.8193 371.8315,57.1675 Q373.1514,55.5156 375.6582,55.5156 Q376.3638,55.5156 377.0112,55.665 Q377.6587,55.8145 378.2231,56.1133 L378.2231,58.8359 Q377.5923,58.2549 376.9988,57.9851 Q376.4053,57.7153 375.7744,57.7153 Q374.4297,57.7153 373.7449,58.782 Q373.0601,59.8486 373.0601,61.9487 Q373.0601,64.0405 373.7449,65.1072 Q374.4297,66.1738 375.7744,66.1738 Q376.4053,66.1738 376.9988,65.9041 Q377.5923,65.6343 378.2231,65.0532 Z "/><text fill="#000000" font-family="sans-serif" font-size="12" font-style="italic" lengthAdjust="spacingAndGlyphs" textLength="48" x="395.25" y="59.6016">«object»</text><text fill="#000000" font-family="sans-serif" font-size="12" lengthAdjust="spacingAndGlyphs" textLength="47" x="395.75" y="73.7344">Weather</text><line style="stroke: #00008B; stroke-width: 1.5;" x1="243.5" x2="562.5" y1="81.2656" y2="81.2656"/><ellipse cx="253.5" cy="93.2432" fill="none" rx="3" ry="3" style="stroke: #038048; stroke-width: 1.0;"/><text fill="#000000" font-family="sans-serif" font-size="11" lengthAdjust="spacingAndGlyphs" textLength="206" x="262.5" y="95.9004">pyowm.webapi25.owm25.OWM25 owm</text><ellipse cx="253.5" cy="106.1982" fill="none" rx="3" ry="3" style="stroke: #038048; stroke-width: 1.0;"/><text fill="#000000" font-family="sans-serif" font-size="11" lengthAdjust="spacingAndGlyphs" textLength="268" x="262.5" y="108.8555">pyowm.webapi25.forecaster.Forecaster forecaster</text><ellipse cx="253.5" cy="119.1533" fill="none" rx="3" ry="3" style="stroke: #038048; stroke-width: 1.0;"/><text fill="#000000" font-family="sans-serif" font-size="11" lengthAdjust="spacingAndGlyphs" textLength="235" x="262.5" y="121.8105">pyowm.webapi25.forecast.Forecast forecast</text><ellipse cx="253.5" cy="132.1084" fill="none" rx="3" ry="3" style="stroke: #038048; stroke-width: 1.0;"/><text fill="#000000" font-family="sans-serif" font-size="11" lengthAdjust="spacingAndGlyphs" textLength="295" x="262.5" y="134.7656">pyowm.webapi25.observation.Observation observation</text><ellipse cx="253.5" cy="145.0635" fill="none" rx="3" ry="3" style="stroke: #038048; stroke-width: 1.0;"/><text fill="#000000" font-family="sans-serif" font-size="11" lengthAdjust="spacingAndGlyphs" textLength="53" x="262.5" y="147.7207">dict today</text><ellipse cx="253.5" cy="158.0186" fill="none" rx="3" ry="3" style="stroke: #038048; stroke-width: 1.0;"/><text fill="#000000" font-family="sans-serif" font-size="11" lengthAdjust="spacingAndGlyphs" textLength="81" x="262.5" y="160.6758">[dict] forecasts</text><line style="stroke: #00008B; stroke-width: 1.5;" x1="243.5" x2="562.5" y1="166.9961" y2="166.9961"/><!--class weather.weather.row--><rect fill="#00FFFF" filter="url(#fvcyrgnhqodug)" height="119.041" id="weather.weather.row" style="stroke: #00008B; stroke-width: 1.5;" width="185" x="22.5" y="49.5"/><ellipse cx="96.25" cy="68.6328" fill="#DA70D6" rx="11" ry="11" style="stroke: #00008B; stroke-width: 1.0;"/><path d="M95.8359,64.4478 L95.8359,72.4248 L96.5,72.4248 Q97.9443,72.4248 98.5586,71.5159 Q99.1729,70.6069 99.1729,68.4238 Q99.1729,66.2573 98.5586,65.3525 Q97.9443,64.4478 96.5,64.4478 Z M93.3872,62.2397 L96.0103,62.2397 Q99.0483,62.2397 100.3848,63.6882 Q101.7212,65.1367 101.7212,68.4238 Q101.7212,71.7192 100.3848,73.176 Q99.0483,74.6328 96.0103,74.6328 L93.3872,74.6328 Z "/><text fill="#000000" font-family="sans-serif" font-size="12" font-style="italic" lengthAdjust="spacingAndGlyphs" textLength="33" x="114.75" y="66.1016">«dict»</text><text fill="#000000" font-family="sans-serif" font-size="12" lengthAdjust="spacingAndGlyphs" textLength="21" x="120.75" y="80.2344">row</text><line style="stroke: #00008B; stroke-width: 1.5;" x1="23.5" x2="206.5" y1="87.7656" y2="87.7656"/><text fill="#000000" font-family="sans-serif" font-size="11" lengthAdjust="spacingAndGlyphs" textLength="139" x="28.5" y="102.4004">status: kivy.uix.label.Label</text><text fill="#000000" font-family="sans-serif" font-size="11" lengthAdjust="spacingAndGlyphs" textLength="173" x="28.5" y="115.3555">icon: kivy.uix.image.AsyncImage</text><text fill="#000000" font-family="sans-serif" font-size="11" lengthAdjust="spacingAndGlyphs" textLength="130" x="28.5" y="128.3105">high: kivy.uix.label.Label</text><text fill="#000000" font-family="sans-serif" font-size="11" lengthAdjust="spacingAndGlyphs" textLength="124" x="28.5" y="141.2656">low: kivy.uix.label.Label</text><text fill="#000000" font-family="sans-serif" font-size="11" lengthAdjust="spacingAndGlyphs" textLength="146" x="28.5" y="154.2207">current: kivy.uix.label.Label</text><line style="stroke: #00008B; stroke-width: 1.5;" x1="23.5" x2="206.5" y1="160.541" y2="160.541"/><!--class weather.weather.grid--><rect fill="#00FFFF" filter="url(#fvcyrgnhqodug)" height="119.041" id="weather.weather.grid" style="stroke: #00008B; stroke-width: 1.5;" width="78" x="76" y="235"/><ellipse cx="98.65" cy="254.1328" fill="#DA70D6" rx="11" ry="11" style="stroke: #00008B; stroke-width: 1.0;"/><path d="M98.2359,249.9478 L98.2359,257.9248 L98.9,257.9248 Q100.3443,257.9248 100.9586,257.0159 Q101.5729,256.1069 101.5729,253.9238 Q101.5729,251.7573 100.9586,250.8525 Q100.3443,249.9478 98.9,249.9478 Z M95.7872,247.7397 L98.4103,247.7397 Q101.4483,247.7397 102.7848,249.1882 Q104.1212,250.6367 104.1212,253.9238 Q104.1212,257.2192 102.7848,258.676 Q101.4483,260.1328 98.4103,260.1328 L95.7872,260.1328 Z "/><text fill="#000000" font-family="sans-serif" font-size="12" font-style="italic" lengthAdjust="spacingAndGlyphs" textLength="33" x="112.35" y="251.6016">«dict»</text><text fill="#000000" font-family="sans-serif" font-size="12" lengthAdjust="spacingAndGlyphs" textLength="23" x="117.35" y="265.7344">grid</text><line style="stroke: #00008B; stroke-width: 1.5;" x1="77" x2="153" y1="273.2656" y2="273.2656"/><text fill="#000000" font-family="sans-serif" font-size="11" lengthAdjust="spacingAndGlyphs" textLength="59" x="82" y="287.9004">status: row</text><text fill="#000000" font-family="sans-serif" font-size="11" lengthAdjust="spacingAndGlyphs" textLength="49" x="82" y="300.8555">icon: row</text><text fill="#000000" font-family="sans-serif" font-size="11" lengthAdjust="spacingAndGlyphs" textLength="50" x="82" y="313.8105">high: row</text><text fill="#000000" font-family="sans-serif" font-size="11" lengthAdjust="spacingAndGlyphs" textLength="44" x="82" y="326.7656">low: row</text><text fill="#000000" font-family="sans-serif" font-size="11" lengthAdjust="spacingAndGlyphs" textLength="66" x="82" y="339.7207">current: row</text><line style="stroke: #00008B; stroke-width: 1.5;" x1="77" x2="153" y1="346.041" y2="346.041"/><!--class weather.weatherui.NumericLabel--><rect fill="#98FB98" filter="url(#fvcyrgnhqodug)" height="67.2207" id="weather.weatherui.NumericLabel" style="stroke: #008000; stroke-width: 1.5;" width="150" x="588" y="414"/><rect fill="#98FB98" height="38.2656" style="stroke: #008000; stroke-width: 1.5;" width="150" x="588" y="414"/><ellipse cx="603" cy="433.1328" fill="#ADD1B2" rx="11" ry="11" style="stroke: #008000; stroke-width: 1.0;"/><path d="M605.9731,438.7759 Q605.3921,439.0747 604.7529,439.2241 Q604.1138,439.3735 603.4082,439.3735 Q600.9014,439.3735 599.5815,437.7217 Q598.2617,436.0698 598.2617,432.9487 Q598.2617,429.8193 599.5815,428.1675 Q600.9014,426.5156 603.4082,426.5156 Q604.1138,426.5156 604.7612,426.665 Q605.4087,426.8145 605.9731,427.1133 L605.9731,429.8359 Q605.3423,429.2549 604.7488,428.9851 Q604.1553,428.7153 603.5244,428.7153 Q602.1797,428.7153 601.4949,429.782 Q600.8101,430.8486 600.8101,432.9487 Q600.8101,435.0405 601.4949,436.1072 Q602.1797,437.1738 603.5244,437.1738 Q604.1553,437.1738 604.7488,436.9041 Q605.3423,436.6343 605.9731,436.0532 Z "/><text fill="#000000" font-family="sans-serif" font-size="12" font-style="italic" lengthAdjust="spacingAndGlyphs" textLength="122" x="615" y="430.6016">«kivy.uix.label.Label»</text><text fill="#000000" font-family="sans-serif" font-size="12" lengthAdjust="spacingAndGlyphs" textLength="79" x="636.5" y="444.7344">NumericLabel</text><line style="stroke: #008000; stroke-width: 1.5;" x1="589" x2="737" y1="452.2656" y2="452.2656"/><ellipse cx="599" cy="464.2432" fill="none" rx="3" ry="3" style="stroke: #038048; stroke-width: 1.0;"/><text fill="#000000" font-family="sans-serif" font-size="11" lengthAdjust="spacingAndGlyphs" textLength="39" x="608" y="466.9004">str text</text><line style="stroke: #008000; stroke-width: 1.5;" x1="589" x2="737" y1="473.2207" y2="473.2207"/><!--class weather.weatherui.StatusLabel--><rect fill="#98FB98" filter="url(#fvcyrgnhqodug)" height="67.2207" id="weather.weatherui.StatusLabel" style="stroke: #008000; stroke-width: 1.5;" width="150" x="773" y="414"/><ellipse cx="788" cy="433.1328" fill="#ADD1B2" rx="11" ry="11" style="stroke: #008000; stroke-width: 1.0;"/><path d="M790.9731,438.7759 Q790.3921,439.0747 789.7529,439.2241 Q789.1138,439.3735 788.4082,439.3735 Q785.9014,439.3735 784.5815,437.7217 Q783.2617,436.0698 783.2617,432.9487 Q783.2617,429.8193 784.5815,428.1675 Q785.9014,426.5156 788.4082,426.5156 Q789.1138,426.5156 789.7612,426.665 Q790.4087,426.8145 790.9731,427.1133 L790.9731,429.8359 Q790.3423,429.2549 789.7488,428.9851 Q789.1553,428.7153 788.5244,428.7153 Q787.1797,428.7153 786.4949,429.782 Q785.8101,430.8486 785.8101,432.9487 Q785.8101,435.0405 786.4949,436.1072 Q787.1797,437.1738 788.5244,437.1738 Q789.1553,437.1738 789.7488,436.9041 Q790.3423,436.6343 790.9731,436.0532 Z "/><text fill="#000000" font-family="sans-serif" font-size="12" font-style="italic" lengthAdjust="spacingAndGlyphs" textLength="122" x="800" y="430.6016">«kivy.uix.label.Label»</text><text fill="#000000" font-family="sans-serif" font-size="12" lengthAdjust="spacingAndGlyphs" textLength="65" x="828.5" y="444.7344">StatusLabel</text><line style="stroke: #008000; stroke-width: 1.5;" x1="774" x2="922" y1="452.2656" y2="452.2656"/><ellipse cx="784" cy="464.2432" fill="none" rx="3" ry="3" style="stroke: #038048; stroke-width: 1.0;"/><text fill="#000000" font-family="sans-serif" font-size="11" lengthAdjust="spacingAndGlyphs" textLength="39" x="793" y="466.9004">str text</text><line style="stroke: #008000; stroke-width: 1.5;" x1="774" x2="922" y1="473.2207" y2="473.2207"/><!--class weather.weatherui.DayLabel--><rect fill="#98FB98" filter="url(#fvcyrgnhqodug)" height="67.2207" id="weather.weatherui.DayLabel" style="stroke: #008000; stroke-width: 1.5;" width="150" x="958" y="414"/><ellipse cx="973" cy="433.1328" fill="#ADD1B2" rx="11" ry="11" style="stroke: #008000; stroke-width: 1.0;"/><path d="M975.9731,438.7759 Q975.3921,439.0747 974.7529,439.2241 Q974.1138,439.3735 973.4082,439.3735 Q970.9014,439.3735 969.5815,437.7217 Q968.2617,436.0698 968.2617,432.9487 Q968.2617,429.8193 969.5815,428.1675 Q970.9014,426.5156 973.4082,426.5156 Q974.1138,426.5156 974.7612,426.665 Q975.4087,426.8145 975.9731,427.1133 L975.9731,429.8359 Q975.3423,429.2549 974.7488,428.9851 Q974.1553,428.7153 973.5244,428.7153 Q972.1797,428.7153 971.4949,429.782 Q970.8101,430.8486 970.8101,432.9487 Q970.8101,435.0405 971.4949,436.1072 Q972.1797,437.1738 973.5244,437.1738 Q974.1553,437.1738 974.7488,436.9041 Q975.3423,436.6343 975.9731,436.0532 Z "/><text fill="#000000" font-family="sans-serif" font-size="12" font-style="italic" lengthAdjust="spacingAndGlyphs" textLength="122" x="985" y="430.6016">«kivy.uix.label.Label»</text><text fill="#000000" font-family="sans-serif" font-size="12" lengthAdjust="spacingAndGlyphs" textLength="53" x="1019.5" y="444.7344">DayLabel</text><line style="stroke: #008000; stroke-width: 1.5;" x1="959" x2="1107" y1="452.2656" y2="452.2656"/><ellipse cx="969" cy="464.2432" fill="none" rx="3" ry="3" style="stroke: #038048; stroke-width: 1.0;"/><text fill="#000000" font-family="sans-serif" font-size="11" lengthAdjust="spacingAndGlyphs" textLength="39" x="978" y="466.9004">str text</text><line style="stroke: #008000; stroke-width: 1.5;" x1="959" x2="1107" y1="473.2207" y2="473.2207"/><!--class weather.weatherui.ForecastIcon--><rect fill="#98FB98" filter="url(#fvcyrgnhqodug)" height="67.2207" id="weather.weatherui.ForecastIcon" style="stroke: #008000; stroke-width: 1.5;" width="194" x="1143" y="414"/><ellipse cx="1158" cy="433.1328" fill="#ADD1B2" rx="11" ry="11" style="stroke: #008000; stroke-width: 1.0;"/><path d="M1160.9731,438.7759 Q1160.3921,439.0747 1159.7529,439.2241 Q1159.1138,439.3735 1158.4082,439.3735 Q1155.9014,439.3735 1154.5815,437.7217 Q1153.2617,436.0698 1153.2617,432.9487 Q1153.2617,429.8193 1154.5815,428.1675 Q1155.9014,426.5156 1158.4082,426.5156 Q1159.1138,426.5156 1159.7612,426.665 Q1160.4087,426.8145 1160.9731,427.1133 L1160.9731,429.8359 Q1160.3423,429.2549 1159.7488,428.9851 Q1159.1553,428.7153 1158.5244,428.7153 Q1157.1797,428.7153 1156.4949,429.782 Q1155.8101,430.8486 1155.8101,432.9487 Q1155.8101,435.0405 1156.4949,436.1072 Q1157.1797,437.1738 1158.5244,437.1738 Q1159.1553,437.1738 1159.7488,436.9041 Q1160.3423,436.6343 1160.9731,436.0532 Z "/><text fill="#000000" font-family="sans-serif" font-size="12" font-style="italic" lengthAdjust="spacingAndGlyphs" textLength="166" x="1170" y="430.6016">«kivy.uix.image.AsyncImage»</text><text fill="#000000" font-family="sans-serif" font-size="12" lengthAdjust="spacingAndGlyphs" textLength="71" x="1217.5" y="444.7344">ForecastIcon</text><line style="stroke: #008000; stroke-width: 1.5;" x1="1144" x2="1336" y1="452.2656" y2="452.2656"/><ellipse cx="1154" cy="464.2432" fill="none" rx="3" ry="3" style="stroke: #038048; stroke-width: 1.0;"/><text fill="#000000" font-family="sans-serif" font-size="11" lengthAdjust="spacingAndGlyphs" textLength="55" x="1163" y="466.9004">str source</text><line style="stroke: #008000; stroke-width: 1.5;" x1="1144" x2="1336" y1="473.2207" y2="473.2207"/><!--class weather.weatherui.ForecastGrid--><rect fill="#98FB98" filter="url(#fvcyrgnhqodug)" height="80.1758" id="weather.weatherui.ForecastGrid" style="stroke: #008000; stroke-width: 1.5;" width="210" x="588" y="254.5"/><ellipse cx="603" cy="273.6328" fill="#ADD1B2" rx="11" ry="11" style="stroke: #008000; stroke-width: 1.0;"/><path d="M605.9731,279.2759 Q605.3921,279.5747 604.7529,279.7241 Q604.1138,279.8735 603.4082,279.8735 Q600.9014,279.8735 599.5815,278.2217 Q598.2617,276.5698 598.2617,273.4487 Q598.2617,270.3193 599.5815,268.6675 Q600.9014,267.0156 603.4082,267.0156 Q604.1138,267.0156 604.7612,267.165 Q605.4087,267.3145 605.9731,267.6133 L605.9731,270.3359 Q605.3423,269.7549 604.7488,269.4851 Q604.1553,269.2153 603.5244,269.2153 Q602.1797,269.2153 601.4949,270.282 Q600.8101,271.3486 600.8101,273.4487 Q600.8101,275.5405 601.4949,276.6072 Q602.1797,277.6738 603.5244,277.6738 Q604.1553,277.6738 604.7488,277.4041 Q605.3423,277.1343 605.9731,276.5532 Z "/><text fill="#000000" font-family="sans-serif" font-size="12" font-style="italic" lengthAdjust="spacingAndGlyphs" textLength="182" x="615" y="271.1016">«kivy.uix.gridlayout.GridLayout»</text><text fill="#000000" font-family="sans-serif" font-size="12" lengthAdjust="spacingAndGlyphs" textLength="73" x="669.5" y="285.2344">ForecastGrid</text><line style="stroke: #008000; stroke-width: 1.5;" x1="589" x2="797" y1="292.7656" y2="292.7656"/><ellipse cx="599" cy="304.7432" fill="none" rx="3" ry="3" style="stroke: #038048; stroke-width: 1.0;"/><text fill="#000000" font-family="sans-serif" font-size="11" lengthAdjust="spacingAndGlyphs" textLength="88" x="608" y="307.4004">Weather weather</text><ellipse cx="599" cy="317.6982" fill="none" rx="3" ry="3" style="stroke: #038048; stroke-width: 1.0;"/><text fill="#000000" font-family="sans-serif" font-size="11" lengthAdjust="spacingAndGlyphs" textLength="64" x="608" y="320.3555">dict widgets</text><line style="stroke: #008000; stroke-width: 1.5;" x1="589" x2="797" y1="326.6758" y2="326.6758"/><!--class weather.weatherui.TodayGrid--><rect fill="#98FB98" filter="url(#fvcyrgnhqodug)" height="80.1758" id="weather.weatherui.TodayGrid" style="stroke: #008000; stroke-width: 1.5;" width="210" x="833" y="254.5"/><ellipse cx="848" cy="273.6328" fill="#ADD1B2" rx="11" ry="11" style="stroke: #008000; stroke-width: 1.0;"/><path d="M850.9731,279.2759 Q850.3921,279.5747 849.7529,279.7241 Q849.1138,279.8735 848.4082,279.8735 Q845.9014,279.8735 844.5815,278.2217 Q843.2617,276.5698 843.2617,273.4487 Q843.2617,270.3193 844.5815,268.6675 Q845.9014,267.0156 848.4082,267.0156 Q849.1138,267.0156 849.7612,267.165 Q850.4087,267.3145 850.9731,267.6133 L850.9731,270.3359 Q850.3423,269.7549 849.7488,269.4851 Q849.1553,269.2153 848.5244,269.2153 Q847.1797,269.2153 846.4949,270.282 Q845.8101,271.3486 845.8101,273.4487 Q845.8101,275.5405 846.4949,276.6072 Q847.1797,277.6738 848.5244,277.6738 Q849.1553,277.6738 849.7488,277.4041 Q850.3423,277.1343 850.9731,276.5532 Z "/><text fill="#000000" font-family="sans-serif" font-size="12" font-style="italic" lengthAdjust="spacingAndGlyphs" textLength="182" x="860" y="271.1016">«kivy.uix.gridlayout.GridLayout»</text><text fill="#000000" font-family="sans-serif" font-size="12" lengthAdjust="spacingAndGlyphs" textLength="61" x="920.5" y="285.2344">TodayGrid</text><line style="stroke: #008000; stroke-width: 1.5;" x1="834" x2="1042" y1="292.7656" y2="292.7656"/><ellipse cx="844" cy="304.7432" fill="none" rx="3" ry="3" style="stroke: #038048; stroke-width: 1.0;"/><text fill="#000000" font-family="sans-serif" font-size="11" lengthAdjust="spacingAndGlyphs" textLength="88" x="853" y="307.4004">Weather weather</text><ellipse cx="844" cy="317.6982" fill="none" rx="3" ry="3" style="stroke: #038048; stroke-width: 1.0;"/><text fill="#000000" font-family="sans-serif" font-size="11" lengthAdjust="spacingAndGlyphs" textLength="64" x="853" y="320.3555">dict widgets</text><line style="stroke: #008000; stroke-width: 1.5;" x1="834" x2="1042" y1="326.6758" y2="326.6758"/><!--class weather.weatherui.TodayTitle--><rect fill="#98FB98" filter="url(#fvcyrgnhqodug)" height="67.2207" id="weather.weatherui.TodayTitle" style="stroke: #008000; stroke-width: 1.5;" width="150" x="1263" y="261"/><ellipse cx="1278" cy="280.1328" fill="#ADD1B2" rx="11" ry="11" style="stroke: #008000; stroke-width: 1.0;"/><path d="M1280.9731,285.7759 Q1280.3921,286.0747 1279.7529,286.2241 Q1279.1138,286.3735 1278.4082,286.3735 Q1275.9014,286.3735 1274.5815,284.7217 Q1273.2617,283.0698 1273.2617,279.9487 Q1273.2617,276.8193 1274.5815,275.1675 Q1275.9014,273.5156 1278.4082,273.5156 Q1279.1138,273.5156 1279.7612,273.665 Q1280.4087,273.8145 1280.9731,274.1133 L1280.9731,276.8359 Q1280.3423,276.2549 1279.7488,275.9851 Q1279.1553,275.7153 1278.5244,275.7153 Q1277.1797,275.7153 1276.4949,276.782 Q1275.8101,277.8486 1275.8101,279.9487 Q1275.8101,282.0405 1276.4949,283.1072 Q1277.1797,284.1738 1278.5244,284.1738 Q1279.1553,284.1738 1279.7488,283.9041 Q1280.3423,283.6343 1280.9731,283.0532 Z "/><text fill="#000000" font-family="sans-serif" font-size="12" font-style="italic" lengthAdjust="spacingAndGlyphs" textLength="122" x="1290" y="277.6016">«kivy.uix.label.Label»</text><text fill="#000000" font-family="sans-serif" font-size="12" lengthAdjust="spacingAndGlyphs" textLength="61" x="1320.5" y="291.7344">TodayTitle</text><line style="stroke: #008000; stroke-width: 1.5;" x1="1264" x2="1412" y1="299.2656" y2="299.2656"/><ellipse cx="1274" cy="311.2432" fill="none" rx="3" ry="3" style="stroke: #038048; stroke-width: 1.0;"/><text fill="#000000" font-family="sans-serif" font-size="11" lengthAdjust="spacingAndGlyphs" textLength="39" x="1283" y="313.9004">str text</text><line style="stroke: #008000; stroke-width: 1.5;" x1="1264" x2="1412" y1="320.2207" y2="320.2207"/><!--class weather.weatherui.ForecastTitle--><rect fill="#98FB98" filter="url(#fvcyrgnhqodug)" height="67.2207" id="weather.weatherui.ForecastTitle" style="stroke: #008000; stroke-width: 1.5;" width="150" x="1078" y="261"/><ellipse cx="1093" cy="280.1328" fill="#ADD1B2" rx="11" ry="11" style="stroke: #008000; stroke-width: 1.0;"/><path d="M1095.9731,285.7759 Q1095.3921,286.0747 1094.7529,286.2241 Q1094.1138,286.3735 1093.4082,286.3735 Q1090.9014,286.3735 1089.5815,284.7217 Q1088.2617,283.0698 1088.2617,279.9487 Q1088.2617,276.8193 1089.5815,275.1675 Q1090.9014,273.5156 1093.4082,273.5156 Q1094.1138,273.5156 1094.7612,273.665 Q1095.4087,273.8145 1095.9731,274.1133 L1095.9731,276.8359 Q1095.3423,276.2549 1094.7488,275.9851 Q1094.1553,275.7153 1093.5244,275.7153 Q1092.1797,275.7153 1091.4949,276.782 Q1090.8101,277.8486 1090.8101,279.9487 Q1090.8101,282.0405 1091.4949,283.1072 Q1092.1797,284.1738 1093.5244,284.1738 Q1094.1553,284.1738 1094.7488,283.9041 Q1095.3423,283.6343 1095.9731,283.0532 Z "/><text fill="#000000" font-family="sans-serif" font-size="12" font-style="italic" lengthAdjust="spacingAndGlyphs" textLength="122" x="1105" y="277.6016">«kivy.uix.label.Label»</text><text fill="#000000" font-family="sans-serif" font-size="12" lengthAdjust="spacingAndGlyphs" textLength="73" x="1129.5" y="291.7344">ForecastTitle</text><line style="stroke: #008000; stroke-width: 1.5;" x1="1079" x2="1227" y1="299.2656" y2="299.2656"/><ellipse cx="1089" cy="311.2432" fill="none" rx="3" ry="3" style="stroke: #038048; stroke-width: 1.0;"/><text fill="#000000" font-family="sans-serif" font-size="11" lengthAdjust="spacingAndGlyphs" textLength="39" x="1098" y="313.9004">str text</text><line style="stroke: #008000; stroke-width: 1.5;" x1="1079" x2="1227" y1="320.2207" y2="320.2207"/><!--class weather.weatherui.TodayBox--><rect fill="#98FB98" filter="url(#fvcyrgnhqodug)" height="80.1758" id="weather.weatherui.TodayBox" style="stroke: #008000; stroke-width: 1.5;" width="205" x="1114.5" y="69"/><ellipse cx="1129.5" cy="88.1328" fill="#ADD1B2" rx="11" ry="11" style="stroke: #008000; stroke-width: 1.0;"/><path d="M1132.4731,93.7759 Q1131.8921,94.0747 1131.2529,94.2241 Q1130.6138,94.3735 1129.9082,94.3735 Q1127.4014,94.3735 1126.0815,92.7217 Q1124.7617,91.0698 1124.7617,87.9487 Q1124.7617,84.8193 1126.0815,83.1675 Q1127.4014,81.5156 1129.9082,81.5156 Q1130.6138,81.5156 1131.2612,81.665 Q1131.9087,81.8145 1132.4731,82.1133 L1132.4731,84.8359 Q1131.8423,84.2549 1131.2488,83.9851 Q1130.6553,83.7153 1130.0244,83.7153 Q1128.6797,83.7153 1127.9949,84.782 Q1127.3101,85.8486 1127.3101,87.9487 Q1127.3101,90.0405 1127.9949,91.1072 Q1128.6797,92.1738 1130.0244,92.1738 Q1130.6553,92.1738 1131.2488,91.9041 Q1131.8423,91.6343 1132.4731,91.0532 Z "/><text fill="#000000" font-family="sans-serif" font-size="12" font-style="italic" lengthAdjust="spacingAndGlyphs" textLength="177" x="1141.5" y="85.6016">«kivy.uix.boxlayout.BoxLayout»</text><text fill="#000000" font-family="sans-serif" font-size="12" lengthAdjust="spacingAndGlyphs" textLength="57" x="1201.5" y="99.7344">TodayBox</text><line style="stroke: #008000; stroke-width: 1.5;" x1="1115.5" x2="1318.5" y1="107.2656" y2="107.2656"/><ellipse cx="1125.5" cy="119.2432" fill="none" rx="3" ry="3" style="stroke: #038048; stroke-width: 1.0;"/><text fill="#000000" font-family="sans-serif" font-size="11" lengthAdjust="spacingAndGlyphs" textLength="79" x="1134.5" y="121.9004">TodayTitle title</text><ellipse cx="1125.5" cy="132.1982" fill="none" rx="3" ry="3" style="stroke: #038048; stroke-width: 1.0;"/><text fill="#000000" font-family="sans-serif" font-size="11" lengthAdjust="spacingAndGlyphs" textLength="81" x="1134.5" y="134.8555">TodayGrid grid</text><line style="stroke: #008000; stroke-width: 1.5;" x1="1115.5" x2="1318.5" y1="141.1758" y2="141.1758"/><!--class weather.weatherui.ForecastBox--><rect fill="#98FB98" filter="url(#fvcyrgnhqodug)" height="80.1758" id="weather.weatherui.ForecastBox" style="stroke: #008000; stroke-width: 1.5;" width="205" x="782.5" y="69"/><ellipse cx="797.5" cy="88.1328" fill="#ADD1B2" rx="11" ry="11" style="stroke: #008000; stroke-width: 1.0;"/><path d="M800.4731,93.7759 Q799.8921,94.0747 799.2529,94.2241 Q798.6138,94.3735 797.9082,94.3735 Q795.4014,94.3735 794.0815,92.7217 Q792.7617,91.0698 792.7617,87.9487 Q792.7617,84.8193 794.0815,83.1675 Q795.4014,81.5156 797.9082,81.5156 Q798.6138,81.5156 799.2612,81.665 Q799.9087,81.8145 800.4731,82.1133 L800.4731,84.8359 Q799.8423,84.2549 799.2488,83.9851 Q798.6553,83.7153 798.0244,83.7153 Q796.6797,83.7153 795.9949,84.782 Q795.3101,85.8486 795.3101,87.9487 Q795.3101,90.0405 795.9949,91.1072 Q796.6797,92.1738 798.0244,92.1738 Q798.6553,92.1738 799.2488,91.9041 Q799.8423,91.6343 800.4731,91.0532 Z "/><text fill="#000000" font-family="sans-serif" font-size="12" font-style="italic" lengthAdjust="spacingAndGlyphs" textLength="177" x="809.5" y="85.6016">«kivy.uix.boxlayout.BoxLayout»</text><text fill="#000000" font-family="sans-serif" font-size="12" lengthAdjust="spacingAndGlyphs" textLength="69" x="863.5" y="99.7344">ForecastBox</text><line style="stroke: #008000; stroke-width: 1.5;" x1="783.5" x2="986.5" y1="107.2656" y2="107.2656"/><ellipse cx="793.5" cy="119.2432" fill="none" rx="3" ry="3" style="stroke: #038048; stroke-width: 1.0;"/><text fill="#000000" font-family="sans-serif" font-size="11" lengthAdjust="spacingAndGlyphs" textLength="92" x="802.5" y="121.9004">ForecastTitle title</text><ellipse cx="793.5" cy="132.1982" fill="none" rx="3" ry="3" style="stroke: #038048; stroke-width: 1.0;"/><text fill="#000000" font-family="sans-serif" font-size="11" lengthAdjust="spacingAndGlyphs" textLength="94" x="802.5" y="134.8555">ForecastGrid grid</text><line style="stroke: #008000; stroke-width: 1.5;" x1="783.5" x2="986.5" y1="141.1758" y2="141.1758"/><!--link weather.weather.row to weather.weather.grid--><path d="M115,181.9055 C115,199.4673 115,218.025 115,234.8974 " fill="none" id="weather.weather.row-weather.weather.grid" style="stroke: #A80036; stroke-width: 1.0;"/><polygon fill="#A80036" points="115,168.7144,111,174.7144,115,180.7144,119,174.7144,115,168.7144" style="stroke: #A80036; stroke-width: 1.0;"/><!--link weather.weatherui.TodayBox to weather.weatherui.TodayTitle--><path d="M1243.2552,149.2507 C1262.5461,178.8248 1288.7632,219.0171 1308.7288,249.6256 " fill="none" id="weather.weatherui.TodayBox-weather.weatherui.TodayTitle" style="stroke: #0000FF; stroke-width: 1.0;"/><polygon fill="#0000FF" points="1316.0473,260.8452,1316.1195,253.6345,1309.4913,250.7944,1309.419,258.0052,1316.0473,260.8452" style="stroke: #0000FF; stroke-width: 1.0;"/><!--link weather.weatherui.TodayBox to weather.weatherui.TodayGrid--><path d="M1156.8046,149.0224 C1113.5916,177.7536 1055.1753,216.5931 1009.5717,246.9138 " fill="none" id="weather.weatherui.TodayBox-weather.weatherui.TodayGrid" style="stroke: #0000FF; stroke-width: 1.0;"/><polygon fill="#0000FF" points="998.5684,254.2296,1005.7795,254.2386,1008.5613,247.5856,1001.3502,247.5767,998.5684,254.2296" style="stroke: #0000FF; stroke-width: 1.0;"/><!--link weather.weatherui.TodayGrid to weather.weatherui.NumericLabel--><path d="M865.747,334.6989 C825.3954,357.1491 775.2841,385.0292 734.9771,407.4545 " fill="none" id="weather.weatherui.TodayGrid-weather.weatherui.NumericLabel" style="stroke: #0000FF; stroke-width: 1.0;"/><polygon fill="#0000FF" points="723.6158,413.7756,730.8037,414.3539,734.1021,407.9414,726.9142,407.3631,723.6158,413.7756" style="stroke: #0000FF; stroke-width: 1.0;"/><!--link weather.weatherui.TodayGrid to weather.weatherui.StatusLabel--><path d="M914.3536,334.6989 C902.1373,355.4666 887.1878,380.8807 874.5735,402.3251 " fill="none" id="weather.weatherui.TodayGrid-weather.weatherui.StatusLabel" style="stroke: #0000FF; stroke-width: 1.0;"/><polygon fill="#0000FF" points="867.8379,413.7756,874.3278,410.6321,873.9223,403.4325,867.4324,406.5759,867.8379,413.7756" style="stroke: #0000FF; stroke-width: 1.0;"/><!--link weather.weatherui.TodayGrid to weather.weatherui.DayLabel--><path d="M962.9601,334.6989 C975.9147,355.5627 991.7812,381.1161 1005.135,402.6227 " fill="none" id="weather.weatherui.TodayGrid-weather.weatherui.DayLabel" style="stroke: #0000FF; stroke-width: 1.0;"/><polygon fill="#0000FF" points="1012.06,413.7756,1012.2932,406.5683,1005.73,403.581,1005.4968,410.7883,1012.06,413.7756" style="stroke: #0000FF; stroke-width: 1.0;"/><!--link weather.weatherui.TodayGrid to weather.weatherui.ForecastIcon--><path d="M1009.5058,334.6249 C1026.3012,343.8031 1044.2015,353.3873 1061,362 C1091.4368,377.6051 1125.1985,393.9705 1155.1243,408.1577 " fill="none" id="weather.weatherui.TodayGrid-weather.weatherui.ForecastIcon" style="stroke: #0000FF; stroke-width: 1.0;"/><polygon fill="#0000FF" points="1167.2564,413.89,1163.5403,407.7101,1156.4066,408.7635,1160.1226,414.9434,1167.2564,413.89" style="stroke: #0000FF; stroke-width: 1.0;"/><!--link weather.weatherui.ForecastBox to weather.weatherui.ForecastTitle--><path d="M942.8221,149.0224 C987.3166,179.8199 1048.5911,222.2319 1093.5003,253.3164 " fill="none" id="weather.weatherui.ForecastBox-weather.weatherui.ForecastTitle" style="stroke: #A80036; stroke-width: 1.0;"/><polygon fill="#A80036" points="1104.2566,260.7615,1101.5997,254.0577,1094.3897,253.9319,1097.0466,260.6357,1104.2566,260.7615" style="stroke: #A80036; stroke-width: 1.0;"/><!--link weather.weatherui.ForecastGrid to weather.weatherui.NumericLabel--><path d="M685.1179,334.6989 C681.14,354.9858 676.2928,379.7066 672.1511,400.8296 " fill="none" id="weather.weatherui.ForecastGrid-weather.weatherui.NumericLabel" style="stroke: #A80036; stroke-width: 1.0;"/><polygon fill="#A80036" points="669.6126,413.7756,674.6924,408.6574,671.9216,401.9998,666.8418,407.1181,669.6126,413.7756" style="stroke: #A80036; stroke-width: 1.0;"/><!--link weather.weatherui.ForecastGrid to weather.weatherui.StatusLabel--><path d="M733.7244,334.6989 C755.4453,356.1396 782.1835,382.5328 804.3337,404.3972 " fill="none" id="weather.weatherui.ForecastGrid-weather.weatherui.StatusLabel" style="stroke: #A80036; stroke-width: 1.0;"/><polygon fill="#A80036" points="813.8347,413.7756,812.3746,406.7139,805.2945,405.3456,806.7546,412.4073,813.8347,413.7756" style="stroke: #A80036; stroke-width: 1.0;"/><!--link weather.weatherui.ForecastGrid to weather.weatherui.DayLabel--><path d="M762.4563,334.6097 C779.7305,344.029 798.3579,353.7242 816,362 C840.037,373.2756 896.3894,395.4347 945.6425,414.3684 " fill="none" id="weather.weatherui.ForecastGrid-weather.weatherui.DayLabel" style="stroke: #A80036; stroke-width: 1.0;"/><polygon fill="#A80036" points="957.9875,419.104,953.8181,413.2204,946.7836,414.8061,950.9529,420.6897,957.9875,419.104" style="stroke: #A80036; stroke-width: 1.0;"/><!--link weather.weatherui.ForecastGrid to weather.weatherui.ForecastIcon--><path d="M756.5446,334.6511 C775.1242,344.9151 795.8646,355.0119 816,362 C947.9802,407.8047 989.85,382.6947 1126,414 C1127.3821,414.3178 1128.7723,414.6427 1130.169,414.9741 " fill="none" id="weather.weatherui.ForecastGrid-weather.weatherui.ForecastIcon" style="stroke: #A80036; stroke-width: 1.0;"/><polygon fill="#A80036" points="1142.8777,418.1149,1138.0126,412.7922,1131.2282,415.2358,1136.0933,420.5585,1142.8777,418.1149" style="stroke: #A80036; stroke-width: 1.0;"/><!--link weather.weatherui.ForecastBox to weather.weatherui.ForecastGrid--><path d="M843.3389,149.2507 C814.1532,177.4483 774.9766,215.2987 743.9329,245.2914 " fill="none" id="weather.weatherui.ForecastBox-weather.weatherui.ForecastGrid" style="stroke: #A80036; stroke-width: 1.0;"/><polygon fill="#A80036" points="734.5798,254.3278,741.6742,253.0356,743.2099,245.9899,736.1156,247.2821,734.5798,254.3278" style="stroke: #A80036; stroke-width: 1.0;"/><!--link weather.weather.row to weather.weatherui.TodayGrid--><path d="M219.82,173.1909 C221.5473,173.8228 223.2745,174.4267 225,175 C475.5478,258.2508 562.0814,162.6797 816,235 C832.8846,239.809 850.2741,246.8581 866.4445,254.4362 " fill="none" id="weather.weather.row-weather.weatherui.TodayGrid" style="stroke: #0000FF; stroke-width: 1.0;"/><polygon fill="#0000FF" points="207.5733,168.2631,211.6464,174.2137,218.7058,172.7427,214.6328,166.792,207.5733,168.2631" style="stroke: #0000FF; stroke-width: 1.0;"/><!--link weather.weather.Weather to weather.weatherui.TodayGrid--><path d="M576.27,176.2234 C680.9776,207.9152 714.8944,198.3866 816,235 C831.2885,240.5364 847.1984,247.4109 862.2842,254.4998 " fill="none" id="weather.weather.Weather-weather.weatherui.TodayGrid" style="stroke: #0000FF; stroke-width: 1.0;"/><polygon fill="#0000FF" points="563.8405,172.3706,568.3871,177.9678,575.3024,175.9236,570.7558,170.3265,563.8405,172.3706" style="stroke: #0000FF; stroke-width: 1.0;"/><!--link weather.weather.row to weather.weatherui.ForecastGrid--><path d="M219.8761,173.0311 C221.5859,173.7127 223.2945,174.3698 225,175 C375.0976,230.4586 428.4148,183.7471 580,235 C595.1224,240.1131 610.677,247.0566 625.2244,254.3965 " fill="none" id="weather.weather.row-weather.weatherui.ForecastGrid" style="stroke: #A80036; stroke-width: 1.0;"/><polygon fill="#A80036" points="207.7338,167.8055,211.6639,173.8515,218.7564,172.5492,214.8263,166.5031,207.7338,167.8055" style="stroke: #A80036; stroke-width: 1.0;"/><!--link weather.weather.Weather to weather.weatherui.ForecastGrid--><path d="M517.7126,182.3765 C556.0102,206.8738 597.2583,233.2583 630.1148,254.2752 " fill="none" id="weather.weather.Weather-weather.weatherui.ForecastGrid" style="stroke: #A80036; stroke-width: 1.0;"/><polygon fill="#A80036" points="506.4685,175.1841,509.3674,181.7868,516.5773,181.6504,513.6783,175.0477,506.4685,175.1841" style="stroke: #A80036; stroke-width: 1.0;"/><!--
@startuml

skinparam class {
    BackgroundColor<< kivy.uix.label.Label >> PaleGreen
  	ArrowColor<< kivy.uix.label.Label >> SeaGreen
  	BorderColor<< kivy.uix.label.Label >> Green
    BackgroundColor<< kivy.uix.gridlayout.GridLayout >> PaleGreen
  	ArrowColor<< kivy.uix.gridlayout.GridLayout >> SeaGreen
  	BorderColor<< kivy.uix.gridlayout.GridLayout >> Green
    BackgroundColor<< kivy.uix.boxlayout.BoxLayout >> PaleGreen
  	ArrowColor<< kivy.uix.boxlayout.BoxLayout >> SeaGreen
  	BorderColor<< kivy.uix.boxlayout.BoxLayout >> Green
    BackgroundColor<< kivy.uix.image.AsyncImage >> PaleGreen
  	ArrowColor<< kivy.uix.image.AsyncImage >> SeaGreen
  	BorderColor<< kivy.uix.image.AsyncImage >> Green
    BackgroundColor<< object >> Cyan
  	ArrowColor<< object >> SeaGreen
  	BorderColor<< object >> DarkBlue
    BackgroundColor<< dict >> Cyan
  	ArrowColor<< dict >> SeaGreen
  	BorderColor<< dict >> DarkBlue
}


namespace weather.weather {

    class Weather<< object >> {
        + pyowm.webapi25.owm25.OWM25 owm
        + pyowm.webapi25.forecaster.Forecaster forecaster
        + pyowm.webapi25.forecast.Forecast forecast
        + pyowm.webapi25.observation.Observation observation
        + dict today
        + [dict] forecasts
    }

    class row << (D,orchid) dict >> {
        status: kivy.uix.label.Label
        icon: kivy.uix.image.AsyncImage
        high: kivy.uix.label.Label
        low: kivy.uix.label.Label
        current: kivy.uix.label.Label
    }

    class grid << (D,orchid) dict >> {
        status: row
        icon: row
        high: row
        low: row
        current: row
    }
    row *- - grid
}

namespace weather.weatherui {

    class NumericLabel<< kivy.uix.label.Label >> #palegreen {
        + str text
    }

    class StatusLabel<< kivy.uix.label.Label >> {
        + str text
    }

    class DayLabel<< kivy.uix.label.Label >> {
        + str text
    }

    class ForecastIcon<< kivy.uix.image.AsyncImage >> {
        + str source
    }

    class ForecastGrid<< kivy.uix.gridlayout.GridLayout >> {
        + Weather weather
        + dict widgets
    }

    class TodayGrid<< kivy.uix.gridlayout.GridLayout >> {
        + Weather weather
        + dict widgets
    }

    class TodayTitle<< kivy.uix.label.Label >> {
        + str text
    }

    class ForecastTitle<< kivy.uix.label.Label >> {
        + str text
    }

    class TodayBox << kivy.uix.boxlayout.BoxLayout >> {
        + TodayTitle title
        + TodayGrid grid
    }

    class ForecastBox << kivy.uix.boxlayout.BoxLayout >> {
        + ForecastTitle title
        + ForecastGrid grid
    }


    TodayBox - -[#Blue]* TodayTitle
    TodayBox - -[#Blue]* TodayGrid
    TodayGrid - -[#Blue]* NumericLabel
    TodayGrid - -[#Blue]* StatusLabel
    TodayGrid - -[#Blue]* DayLabel
    TodayGrid - -[#Blue]* ForecastIcon
    ForecastBox - -* ForecastTitle
    ForecastGrid - -* NumericLabel
    ForecastGrid - -* StatusLabel
    ForecastGrid - -* DayLabel
    ForecastGrid - -* ForecastIcon
    ForecastBox - -* ForecastGrid
    weather.weather.row *-[#Blue]- TodayGrid
    weather.weather.Weather *-[#Blue]- TodayGrid
    weather.weather.row *- - ForecastGrid
    weather.weather.Weather *- - ForecastGrid
}

@enduml

PlantUML version 1.2017.14(Mon Jun 05 05:56:32 EDT 2017)
(GPL source distribution)
Java Runtime: Java(TM) SE Runtime Environment
JVM: Java HotSpot(TM) 64-Bit Server VM
Java Version: 1.8.0_131-b11
Operating System: Mac OS X
OS Version: 10.12.6
Default Encoding: UTF-8
Language: en
Country: US
--></g></svg>